<?xml version="1.0" ?><svg xmlns="http://www.w3.org/2000/svg">
    <symbol id="i-ambulance" viewBox="0 0 1792 1792">
        <path style="fill:currentColor"
            d="M576 1408q0-53-37.5-90.5t-90.5-37.5-90.5 37.5-37.5 90.5 37.5 90.5 90.5 37.5 90.5-37.5 37.5-90.5zm-384-512h384v-256h-158q-14 2-22 9l-195 195q-7 12-9 22v30zm1280 512q0-53-37.5-90.5t-90.5-37.5-90.5 37.5-37.5 90.5 37.5 90.5 90.5 37.5 90.5-37.5 37.5-90.5zm128-672v-192q0-14-9-23t-23-9h-224v-224q0-14-9-23t-23-9h-192q-14 0-23 9t-9 23v224h-224q-14 0-23 9t-9 23v192q0 14 9 23t23 9h224v224q0 14 9 23t23 9h192q14 0 23-9t9-23v-224h224q14 0 23-9t9-23zm256-544v1152q0 26-19 45t-45 19h-192q0 106-75 181t-181 75-181-75-75-181h-384q0 106-75 181t-181 75-181-75-75-181h-128q-26 0-45-19t-19-45 19-45 45-19v-416q0-26 13-58t32-51l198-198q19-19 51-32t58-13h160v-320q0-26 19-45t45-19h1152q26 0 45 19t19 45z" />
    </symbol>
    <symbol id="i-doctor" viewBox="0.0 0 1408.0 2048">
        <path style="fill:currentColor" d="M384,1472c0,17.333-6.333,32.333-19,45s-27.667,19-45,19s-32.333-6.333-45-19s-19-27.667-19-45s6.333-32.333,19-45  s27.667-19,45-19s32.333,6.333,45,19S384,1454.667,384,1472z M1408,1533c0,80.667-24.333,144-73,190s-113.333,69-194,69H267  c-80.667,0-145.333-23-194-69S0,1613.667,0,1533c0-45.333,1.833-89,5.5-131s11.667-88,24-138s28.167-94.167,47.5-132.5  c19.333-38.333,46.333-72.667,81-103c34.667-30.333,74.667-50.5,120-60.5c-14.667,34.667-22,74.667-22,120v203  c-38.667,13.333-69.667,36.667-93,70s-35,70.333-35,111c0,53.333,18.667,98.667,56,136s82.667,56,136,56s98.667-18.667,136-56  s56-82.667,56-136c0-40.667-11.833-77.667-35.5-111s-54.5-56.667-92.5-70v-203c0-41.333,8.333-72.333,25-93  c88,69.333,186.333,104,295,104s207-34.667,295-104c16.667,20.667,25,51.667,25,93v64c-70.667,0-131,25-181,75s-75,110.333-75,181  v89c-21.333,19.333-32,43-32,71c0,26.667,9.333,49.333,28,68s41.333,28,68,28s49.333-9.333,68-28s28-41.333,28-68  c0-28-10.667-51.667-32-71v-89c0-34.667,12.667-64.667,38-90s55.333-38,90-38c34.667,0,64.667,12.667,90,38s38,55.333,38,90v89  c-21.333,19.333-32,43-32,71c0,26.667,9.333,49.333,28,68s41.333,28,68,28s49.333-9.333,68-28s28-41.333,28-68  c0-28-10.667-51.667-32-71v-89c0-45.333-11.5-87.833-34.5-127.5s-54.167-70.833-93.5-93.5c0-6.667,0.167-20.833,0.5-42.5  c0.333-21.667,0.333-37.667,0-48s-1.167-24.167-2.5-41.5s-3.667-33-7-47s-7.667-27.333-13-40c45.333,10,85.333,30.167,120,60.5  c34.667,30.333,61.667,64.667,81,103c19.333,38.333,35.167,82.5,47.5,132.5s20.333,96,24,138S1408,1487.667,1408,1533z M1088,640  c0,106-37.5,196.5-112.5,271.5S810,1024,704,1024s-196.5-37.5-271.5-112.5S320,746,320,640s37.5-196.5,112.5-271.5S598,256,704,256  s196.5,37.5,271.5,112.5S1088,534,1088,640z"/>
    </symbol>
    <symbol id="i-foot" viewBox="0 0 1792 1792"><path style="fill: currentColor" d="M844 472q0 60-19 113.5t-63 92.5-105 39q-76 0-138-57.5t-92-135.5-30-151q0-60 19-113.5t63-92.5 105-39q77 0 138.5 57.5t91.5 135 30 151.5zm-342 483q0 80-42 139t-119 59q-76 0-141.5-55.5t-100.5-133.5-35-152q0-80 42-139.5t119-59.5q76 0 141.5 55.5t100.5 134 35 152.5zm394-27q118 0 255 97.5t229 237 92 254.5q0 46-17 76.5t-48.5 45-64.5 20-76 5.5q-68 0-187.5-45t-182.5-45q-66 0-192.5 44.5t-200.5 44.5q-183 0-183-146 0-86 56-191.5t139.5-192.5 187.5-146 193-59zm239-211q-61 0-105-39t-63-92.5-19-113.5q0-74 30-151.5t91.5-135 138.5-57.5q61 0 105 39t63 92.5 19 113.5q0 73-30 151t-92 135.5-138 57.5zm432-104q77 0 119 59.5t42 139.5q0 74-35 152t-100.5 133.5-141.5 55.5q-77 0-119-59t-42-139q0-74 35-152.5t100.5-134 141.5-55.5z"/></symbol>
    <symbol id="i-phone" viewBox="0 0 1792 1792"><path style="fill: currentColor" d="M1600 1240q0 27-10 70.5t-21 68.5q-21 50-122 106-94 51-186 51-27 0-52.5-3.5t-57.5-12.5-47.5-14.5-55.5-20.5-49-18q-98-35-175-83-128-79-264.5-215.5t-215.5-264.5q-48-77-83-175-3-9-18-49t-20.5-55.5-14.5-47.5-12.5-57.5-3.5-52.5q0-92 51-186 56-101 106-122 25-11 68.5-21t70.5-10q14 0 21 3 18 6 53 76 11 19 30 54t35 63.5 31 53.5q3 4 17.5 25t21.5 35.5 7 28.5q0 20-28.5 50t-62 55-62 53-28.5 46q0 9 5 22.5t8.5 20.5 14 24 11.5 19q76 137 174 235t235 174q2 1 19 11.5t24 14 20.5 8.5 22.5 5q18 0 46-28.5t53-62 55-62 50-28.5q14 0 28.5 7t35.5 21.5 25 17.5q25 15 53.5 31t63.5 35 54 30q70 35 76 53 3 7 3 21z"/></symbol>
    <symbol id="i-right-arrow" viewBox="0 0 477.175 477.175"><path style="fill: currentColor;" d="M360.731,229.075l-225.1-225.1c-5.3-5.3-13.8-5.3-19.1,0s-5.3,13.8,0,19.1l215.5,215.5l-215.5,215.5
		c-5.3,5.3-5.3,13.8,0,19.1c2.6,2.6,6.1,4,9.5,4c3.4,0,6.9-1.3,9.5-4l225.1-225.1C365.931,242.875,365.931,234.275,360.731,229.075z
		"/></symbol>
    <symbol id="i-left-arrow" viewBox="0 0 129 129"><path style="fill: currentColor;" d="m88.6,121.3c0.8,0.8 1.8,1.2 2.9,1.2s2.1-0.4 2.9-1.2c1.6-1.6 1.6-4.2 0-5.8l-51-51 51-51c1.6-1.6 1.6-4.2 0-5.8s-4.2-1.6-5.8,0l-54,53.9c-1.6,1.6-1.6,4.2 0,5.8l54,53.9z"/></symbol>
    <symbol id="i-search" viewBox="0 0 451 451"><path style="fill: currentColor" d="M447.05,428l-109.6-109.6c29.4-33.8,47.2-77.9,47.2-126.1C384.65,86.2,298.35,0,192.35,0C86.25,0,0.05,86.3,0.05,192.3
		s86.3,192.3,192.3,192.3c48.2,0,92.3-17.8,126.1-47.2L428.05,447c2.6,2.6,6.1,4,9.5,4s6.9-1.3,9.5-4
		C452.25,441.8,452.25,433.2,447.05,428z M26.95,192.3c0-91.2,74.2-165.3,165.3-165.3c91.2,0,165.3,74.2,165.3,165.3
		s-74.1,165.4-165.3,165.4C101.15,357.7,26.95,283.5,26.95,192.3z"/></symbol>
    <symbol id="i-vk" viewBox="0 0 112.196 112.196" >	
	<path style="fill: currentColor; fill-rule:evenodd;clip-rule:evenodd;" d="M53.979,80.702h4.403c0,0,1.33-0.146,2.009-0.878
		c0.625-0.672,0.605-1.934,0.605-1.934s-0.086-5.908,2.656-6.778c2.703-0.857,6.174,5.71,9.853,8.235
		c2.782,1.911,4.896,1.492,4.896,1.492l9.837-0.137c0,0,5.146-0.317,2.706-4.363c-0.2-0.331-1.421-2.993-7.314-8.463
		c-6.168-5.725-5.342-4.799,2.088-14.702c4.525-6.031,6.334-9.713,5.769-11.29c-0.539-1.502-3.867-1.105-3.867-1.105l-11.076,0.069
		c0,0-0.821-0.112-1.43,0.252c-0.595,0.357-0.978,1.189-0.978,1.189s-1.753,4.667-4.091,8.636c-4.932,8.375-6.904,8.817-7.71,8.297
		c-1.875-1.212-1.407-4.869-1.407-7.467c0-8.116,1.231-11.5-2.397-12.376c-1.204-0.291-2.09-0.483-5.169-0.514
		c-3.952-0.041-7.297,0.012-9.191,0.94c-1.26,0.617-2.232,1.992-1.64,2.071c0.732,0.098,2.39,0.447,3.269,1.644
		c1.135,1.544,1.095,5.012,1.095,5.012s0.652,9.554-1.523,10.741c-1.493,0.814-3.541-0.848-7.938-8.446
		c-2.253-3.892-3.954-8.194-3.954-8.194s-0.328-0.804-0.913-1.234c-0.71-0.521-1.702-0.687-1.702-0.687l-10.525,0.069
		c0,0-1.58,0.044-2.16,0.731c-0.516,0.611-0.041,1.875-0.041,1.875s8.24,19.278,17.57,28.993
		C44.264,81.287,53.979,80.702,53.979,80.702L53.979,80.702z"/></symbol>
	<symbol id="i-menu" viewBox="0 0 124 124"><path style="fill: currentColor" d="M112,6H12C5.4,6,0,11.4,0,18s5.4,12,12,12h100c6.6,0,12-5.4,12-12S118.6,6,112,6z"/><path style="fill: currentColor" d="M112,50H12C5.4,50,0,55.4,0,62c0,6.6,5.4,12,12,12h100c6.6,0,12-5.4,12-12C124,55.4,118.6,50,112,50z"/><path style="fill: currentColor" d="M112,94H12c-6.6,0-12,5.4-12,12s5.4,12,12,12h100c6.6,0,12-5.4,12-12S118.6,94,112,94z"/></symbol>
	<symbol id="i-user" viewBox="0 0 24 24"><ellipse style="fill:currentColor" cx="12" cy="8" rx="5" ry="6"/><path style="fill:currentColor" d="M21.8,19.1c-0.9-1.8-2.6-3.3-4.8-4.2c-0.6-0.2-1.3-0.2-1.8,0.1c-1,0.6-2,0.9-3.2,0.9s-2.2-0.3-3.2-0.9    C8.3,14.8,7.6,14.7,7,15c-2.2,0.9-3.9,2.4-4.8,4.2C1.5,20.5,2.6,22,4.1,22h15.8C21.4,22,22.5,20.5,21.8,19.1z"/></symbol>
	<symbol id="i-instagram" viewBox="0 0 291.319 291.319">
	<path style="fill: currentColor;" d="M195.93,63.708H95.38c-17.47,0-31.672,14.211-31.672,31.672v100.56
		c0,17.47,14.211,31.672,31.672,31.672h100.56c17.47,0,31.672-14.211,31.672-31.672V95.38
		C227.611,77.919,213.4,63.708,195.93,63.708z M205.908,82.034l3.587-0.009v27.202l-27.402,0.091l-0.091-27.202
		C182.002,82.116,205.908,82.034,205.908,82.034z M145.66,118.239c22.732,0,27.42,21.339,27.42,27.429
		c0,15.103-12.308,27.411-27.42,27.411c-15.121,0-27.42-12.308-27.42-27.411C118.23,139.578,122.928,118.239,145.66,118.239z
		 M209.65,193.955c0,8.658-7.037,15.704-15.713,15.704H97.073c-8.667,0-15.713-7.037-15.713-15.704v-66.539h22.759
		c-2.112,5.198-3.305,12.299-3.305,18.253c0,24.708,20.101,44.818,44.818,44.818s44.808-20.11,44.808-44.818
		c0-5.954-1.193-13.055-3.296-18.253h22.486v66.539L209.65,193.955z"/>
	</symbol>
	<symbol id="i-close" viewBox="0 0 475.2 475.2">
	<path style="fill: currentColor;" d="M405.6,69.6C360.7,24.7,301.1,0,237.6,0s-123.1,24.7-168,69.6S0,174.1,0,237.6s24.7,123.1,69.6,168s104.5,69.6,168,69.6
			s123.1-24.7,168-69.6s69.6-104.5,69.6-168S450.5,114.5,405.6,69.6z M386.5,386.5c-39.8,39.8-92.7,61.7-148.9,61.7
			s-109.1-21.9-148.9-61.7c-82.1-82.1-82.1-215.7,0-297.8C128.5,48.9,181.4,27,237.6,27s109.1,21.9,148.9,61.7
			C468.6,170.8,468.6,304.4,386.5,386.5z"/>
		<path style="fill: currentColor;" d="M342.3,132.9c-5.3-5.3-13.8-5.3-19.1,0l-85.6,85.6L152,132.9c-5.3-5.3-13.8-5.3-19.1,0c-5.3,5.3-5.3,13.8,0,19.1
			l85.6,85.6l-85.6,85.6c-5.3,5.3-5.3,13.8,0,19.1c2.6,2.6,6.1,4,9.5,4s6.9-1.3,9.5-4l85.6-85.6l85.6,85.6c2.6,2.6,6.1,4,9.5,4
			c3.5,0,6.9-1.3,9.5-4c5.3-5.3,5.3-13.8,0-19.1l-85.4-85.6l85.6-85.6C347.6,146.7,347.6,138.2,342.3,132.9z"/>
	</symbol>
	<symbol id="i-star-empty" viewBox="0 0 325.505 325.505"><path style="fill:currentColor;" d="M289.815,114.943c-5.803-0.451-11.803-0.908-17.41-1.583c-3.084-0.37-6.293-0.729-9.54-1.099
			c-16.589-1.86-37.236-4.177-43.431-8.681c-6.026-4.378-14.995-23.045-22.202-38.046c-1.735-3.612-3.454-7.185-5.14-10.606
			c-2.72-5.521-5.33-11.471-7.859-17.231c-8.942-20.38-13.587-30.176-21.479-30.176c-7.892,0-12.542,9.796-21.484,30.176
			c-2.524,5.76-5.134,11.71-7.859,17.231c-1.686,3.421-3.405,7-5.14,10.606c-7.207,15.001-16.176,33.668-22.202,38.046
			c-6.195,4.504-26.842,6.821-43.431,8.681c-3.253,0.364-6.456,0.723-9.54,1.099c-5.608,0.674-11.607,1.131-17.41,1.583
			c-19.668,1.523-32.662,2.524-35.261,10.519c-2.42,7.452,5.586,15.137,22.469,30.432c4.928,4.465,10.024,9.083,14.691,13.701
			c2.991,2.959,6.124,6.005,9.284,9.056c12.238,11.857,27.462,26.608,29.741,33.624c1.751,5.385,1.904,11.096,0.299,16.078
			l-16.872,70.583c-3.394,10.438-0.571,15.197,2.393,17.351c1.556,1.131,3.465,1.697,5.673,1.697c6.065,0,14.446-4.291,27.62-11.292
			c5.624-2.986,11.438-6.075,17.062-8.675c4.221-1.947,8.637-4.085,13.076-6.239c13.989-6.777,29.844-14.457,36.893-14.457
			c7.049,0,22.904,7.68,36.893,14.457c4.438,2.154,8.855,4.291,13.076,6.239c5.624,2.6,11.438,5.684,17.062,8.675
			c13.173,7,21.555,11.292,27.62,11.292c2.214,0,4.123-0.571,5.673-1.697c2.964-2.154,5.782-6.913,2.507-16.937l-17.106-71.41
			c-1.485-4.569-1.338-10.28,0.419-15.665c2.279-7.016,17.508-21.767,29.741-33.624c3.155-3.057,6.293-6.097,9.284-9.056
			c4.661-4.612,9.758-9.236,14.691-13.701c16.883-15.295,24.889-22.985,22.469-30.432
			C322.482,117.472,309.488,116.466,289.815,114.943z M295.303,147.833c-5.02,4.547-10.204,9.246-15.039,14.033
			c-2.959,2.932-6.07,5.945-9.197,8.969c-15.121,14.653-29.404,28.49-32.52,38.073c-2.48,7.631-2.627,15.583-0.533,21.974
			l17.106,71.409c0.696,2.154,0.952,3.677,1.012,4.656c-4.427-0.925-13.674-5.836-21.245-9.861
			c-5.755-3.057-11.705-6.222-17.601-8.942c-4.161-1.925-8.518-4.036-12.896-6.152c-16.502-7.995-32.09-15.545-41.636-15.545
			c-9.546,0-25.134,7.549-41.636,15.545c-4.378,2.121-8.735,4.232-12.901,6.152c-5.896,2.72-11.846,5.885-17.601,8.942
			c-7.571,4.025-16.807,8.936-21.24,9.861c0.071-1.017,0.343-2.654,1.12-5.069l16.872-70.583c2.214-6.804,2.061-14.756-0.419-22.387
			c-3.117-9.589-17.4-23.426-32.52-38.073c-3.127-3.03-6.233-6.037-9.197-8.969c-4.835-4.786-10.024-9.486-15.039-14.033
			c-6.957-6.298-16.192-14.669-18.71-18.759c4.406-1.692,16.633-2.632,25.041-3.285c5.912-0.457,12.031-0.93,17.867-1.632
			c3.057-0.364,6.239-0.723,9.459-1.082c20.619-2.312,40.091-4.498,48.614-10.693c8.251-5.999,16.682-23.551,25.613-42.136
			c1.719-3.573,3.421-7.12,5.091-10.508c2.828-5.738,5.488-11.803,8.061-17.672c3.65-8.322,8.501-19.379,11.52-22.937
			c3.019,3.557,7.87,14.615,11.52,22.937c2.573,5.869,5.232,11.933,8.061,17.672c1.67,3.389,3.372,6.929,5.091,10.508
			c8.931,18.585,17.361,36.143,25.613,42.136c8.523,6.195,27.995,8.382,48.614,10.693c3.22,0.359,6.402,0.718,9.459,1.082
			c5.836,0.702,11.955,1.175,17.867,1.632c8.409,0.653,20.63,1.594,25.036,3.285C311.495,133.164,302.259,141.535,295.303,147.833z"
			/>
	</symbol>
	<symbol id="i-star-full"  viewBox="0 0 47.94 47.94">
	<path style="fill:currentColor;" d="M26.285,2.486l5.407,10.956c0.376,0.762,1.103,1.29,1.944,1.412l12.091,1.757
	c2.118,0.308,2.963,2.91,1.431,4.403l-8.749,8.528c-0.608,0.593-0.886,1.448-0.742,2.285l2.065,12.042
	c0.362,2.109-1.852,3.717-3.746,2.722l-10.814-5.685c-0.752-0.395-1.651-0.395-2.403,0l-10.814,5.685
	c-1.894,0.996-4.108-0.613-3.746-2.722l2.065-12.042c0.144-0.837-0.134-1.692-0.742-2.285l-8.749-8.528
	c-1.532-1.494-0.687-4.096,1.431-4.403l12.091-1.757c0.841-0.122,1.568-0.65,1.944-1.412l5.407-10.956
	C22.602,0.567,25.338,0.567,26.285,2.486z"/>
	</symbol>
	<symbol id="i-google" viewBox="0 0 512 512">
	<path style="fill: currentColor;" d="M113.47,309.408L95.648,375.94l-65.139,1.378C11.042,341.211,0,299.9,0,256
	c0-42.451,10.324-82.483,28.624-117.732h0.014l57.992,10.632l25.404,57.644c-5.317,15.501-8.215,32.141-8.215,49.456
	C103.821,274.792,107.225,292.797,113.47,309.408z"/>
	<path style="fill: currentColor;" d="M507.527,208.176C510.467,223.662,512,239.655,512,256c0,18.328-1.927,36.206-5.598,53.451
		c-12.462,58.683-45.025,109.925-90.134,146.187l-0.014-0.014l-73.044-3.727l-10.338-64.535
		c29.932-17.554,53.324-45.025,65.646-77.911h-136.89V208.176h138.887L507.527,208.176L507.527,208.176z"/>
	<path style="fill:currentColor;" d="M416.253,455.624l0.014,0.014C372.396,490.901,316.666,512,256,512
		c-97.491,0-182.252-54.491-225.491-134.681l82.961-67.91c21.619,57.698,77.278,98.771,142.53,98.771
		c28.047,0,54.323-7.582,76.87-20.818L416.253,455.624z"/>
	<path style="fill: currentColor;" d="M419.404,58.936l-82.933,67.896c-23.335-14.586-50.919-23.012-80.471-23.012
		c-66.729,0-123.429,42.957-143.965,102.724l-83.397-68.276h-0.014C71.23,56.123,157.06,0,256,0
	C318.115,0,375.068,22.126,419.404,58.936z"/>

	</symbol>


</svg>
