<svg id="Capa_1" enable-background="new 0 0 512 512" height="512" viewBox="0 0 512 512" width="512" xmlns="http://www.w3.org/2000/svg"><path d="m209.387 197.874-39.184-15.173 25.091-64.796c4.416-11.405 11.767-21.441 21.307-29.094l11.13-8.927c12.983-10.413 32.372-2.905 34.956 13.536l2.216 14.094c1.899 12.082.574 24.451-3.843 35.856l-14.797 38.214c-5.685 14.682-22.195 21.975-36.876 16.29z" fill="#9c5e5e"/><path d="m264.903 107.514-2.216-14.094c-1.494-9.505-8.607-16.014-16.849-17.811.083.393.165.787.229 1.191l2.216 14.094c1.899 12.082.574 24.451-3.843 35.856l-14.797 38.214c-5.685 14.681-22.195 21.974-36.876 16.289l-19.134-7.409-3.429 8.856 39.184 15.173c14.681 5.685 31.191-1.608 36.876-16.289l14.797-38.214c4.416-11.404 5.741-23.774 3.842-35.856z" fill="#855151"/><path d="m56.358 197.874 39.184-15.173-25.091-64.796c-4.416-11.405-11.767-21.441-21.307-29.094l-11.13-8.927c-12.983-10.413-32.371-2.905-34.956 13.536l-2.216 14.094c-1.899 12.082-.574 24.451 3.843 35.856l14.797 38.214c5.685 14.682 22.195 21.975 36.876 16.29z" fill="#9c5e5e"/><path d="m70.451 117.904c-4.416-11.405-11.767-21.441-21.307-29.094l-11.13-8.927c-7.19-5.767-16.341-6.03-23.518-2.33l9.509 7.627c9.541 7.652 16.891 17.688 21.307 29.094l25.091 64.796-39.183 15.174c-.456.176-.913.34-1.372.492 7.507 5.182 17.363 6.68 26.511 3.138l39.184-15.173z" fill="#855151"/><path d="m206.588 306.911-22.617 19.505c-29.36 25.321-72.837 25.321-102.197 0l-22.617-19.505c-18.158-15.659-28.597-38.449-28.597-62.426v-54.62c0-26.865 21.778-48.643 48.643-48.643h107.341c26.865 0 48.643 21.778 48.643 48.643v54.62c-.001 23.977-10.441 46.767-28.599 62.426z" fill="#efe2dd"/><path d="m195.694 142.094c2.834 6.172 4.426 13.032 4.426 20.268v54.62c0 23.977-10.44 46.767-28.598 62.426l-22.617 19.505c-24.704 21.305-59.4 24.679-87.274 10.131l20.144 17.372c29.36 25.321 72.836 25.321 102.197 0l22.617-19.505c18.158-15.659 28.598-38.449 28.598-62.426v-54.62c-.001-23.736-17.005-43.489-39.493-47.771z" fill="#e1d3ce"/><path d="m455.642 197.874-39.184-15.173 25.091-64.796c4.416-11.405 11.767-21.441 21.307-29.094l11.13-8.927c12.983-10.413 32.372-2.905 34.956 13.536l2.216 14.094c1.899 12.082.574 24.451-3.843 35.856l-14.797 38.214c-5.685 14.682-22.195 21.975-36.876 16.29z" fill="#685e68"/><path d="m511.158 107.514-2.216-14.094c-1.494-9.505-8.607-16.014-16.849-17.811.083.393.165.787.229 1.191l2.216 14.094c1.899 12.082.574 24.451-3.843 35.856l-14.797 38.214c-5.685 14.681-22.195 21.974-36.876 16.289l-19.134-7.409-3.429 8.856 39.184 15.173c14.681 5.685 31.191-1.608 36.876-16.289l14.797-38.214c4.415-11.404 5.741-23.774 3.842-35.856z" fill="#554e56"/><path d="m302.613 197.874 39.184-15.173-25.091-64.796c-4.416-11.405-11.767-21.441-21.307-29.094l-11.13-8.927c-12.983-10.413-32.372-2.905-34.956 13.536l-2.216 14.094c-1.899 12.082-.574 24.451 3.843 35.856l14.797 38.214c5.685 14.682 22.195 21.975 36.876 16.29z" fill="#685e68"/><path d="m316.706 117.904c-4.416-11.405-11.767-21.441-21.307-29.094l-11.13-8.927c-7.19-5.767-16.341-6.03-23.518-2.33l9.509 7.627c9.541 7.652 16.891 17.688 21.307 29.094l25.091 64.796-39.184 15.173c-.456.176-.913.34-1.372.492 7.507 5.182 17.363 6.68 26.511 3.138l39.184-15.173z" fill="#554e56"/><path d="m452.843 306.911-22.617 19.505c-29.361 25.321-72.837 25.321-102.197 0l-22.617-19.505c-18.158-15.659-28.598-38.449-28.598-62.426v-54.62c0-26.865 21.778-48.643 48.643-48.643h107.341c26.865 0 48.643 21.778 48.643 48.643v54.62c0 23.977-10.44 46.767-28.598 62.426z" fill="#d8d1d7"/><path d="m441.949 142.094c2.834 6.172 4.426 13.032 4.426 20.268v54.62c0 23.977-10.44 46.767-28.598 62.426l-22.617 19.505c-24.704 21.305-59.4 24.679-87.274 10.131l20.144 17.372c29.361 25.321 72.837 25.321 102.197 0l22.617-19.505c18.158-15.659 28.598-38.449 28.598-62.426v-54.62c-.001-23.736-17.005-43.489-39.493-47.771z" fill="#cac0c9"/><path d="m420.581 248.665v-.287c0-11.553-5.724-22.356-15.283-28.844l-7.621-5.172c-11.198-7.601-25.9-7.601-37.099 0l-7.621 5.172c-9.559 6.488-15.283 17.291-15.283 28.844v.287c0 4.298-1.695 8.367-4.527 11.6-3.046 3.479-4.893 8.034-4.893 13.021v3.862c0 23.779 19.277 43.055 43.055 43.055h15.635c23.779 0 43.055-19.277 43.055-43.055v-3.862c0-4.987-1.847-9.543-4.893-13.021-2.83-3.233-4.525-7.302-4.525-11.6z" fill="#bbb0ba"/><path d="m417.777 279.408-22.617 19.505c-11.669 10.063-25.569 16.112-39.925 18.176 4.968 2.002 10.391 3.114 16.075 3.114h15.635c23.779 0 43.055-19.277 43.055-43.055v-3.862c0-2.033-.321-3.988-.891-5.833-3.343 4.317-7.128 8.329-11.332 11.955z" fill="#ab9faa"/><path d="" style="fill:none;stroke:#00f;stroke-width:20;stroke-linecap:round;stroke-linejoin:round;stroke-miterlimit:10"/><path d="m293.738 335.373c-3.338-1.137-6.915-1.756-10.637-1.761-8.872-.014-16.935 3.462-22.891 9.131-2.382 2.267-6.16 2.22-8.556-.032-6.011-5.648-14.132-9.078-23.057-8.979-20.685.228-35.747 19.115-32.288 39.51 1.202 7.089 4.861 12.234 12.84 20.179 8.35 8.313 34.605 33.417 43.799 42.197 1.801 1.72 4.631 1.712 6.424-.017 9.478-9.137 37.127-35.816 43.839-42.558 8.137-8.173 12.958-15.549 12.975-26.245.023-14.579-9.373-26.973-22.448-31.425" fill="#ff5426"/><path d="m293.738 335.373c-3.338-1.137-6.915-1.756-10.637-1.761-.686-.001-1.366.02-2.041.06 8.598 5.998 14.22 15.965 14.203 27.243-.016 10.696-4.837 18.072-12.975 26.245-5.905 5.931-28.007 27.285-39.693 38.559 4.219 4.039 7.894 7.551 10.349 9.895 1.802 1.721 4.638 1.714 6.432-.016 9.481-9.14 37.124-35.814 43.836-42.555 8.137-8.173 12.958-15.549 12.975-26.245.022-14.579-9.374-26.973-22.449-31.425z" fill="#f04424"/><path d="m174.326 248.665v-.287c0-11.553-5.724-22.356-15.283-28.844l-7.621-5.172c-11.198-7.601-25.9-7.601-37.099 0l-7.621 5.172c-9.559 6.488-15.283 17.291-15.283 28.844v.287c0 4.298-1.695 8.367-4.527 11.6-3.045 3.479-4.892 8.034-4.892 13.021v3.862c0 23.779 19.276 43.055 43.055 43.055h15.635c23.779 0 43.055-19.277 43.055-43.055v-3.862c0-4.987-1.847-9.543-4.893-13.021-2.831-3.233-4.526-7.302-4.526-11.6z" fill="#bb8080"/><path d="m171.522 279.408-22.617 19.505c-11.669 10.063-25.569 16.112-39.925 18.176 4.968 2.002 10.391 3.114 16.075 3.114h15.635c23.779 0 43.055-19.277 43.055-43.055v-3.862c0-2.033-.321-3.988-.891-5.833-3.343 4.317-7.127 8.329-11.332 11.955z" fill="#af6c6c"/><path d="m402.736 282.351c-6.231-2.137-11.657-6.223-15.502-11.586v-11.533c0-4.267-3.459-7.727-7.727-7.727s-7.727 3.459-7.727 7.727v11.536c-3.749 5.226-9.018 9.255-15.058 11.427-4.015 1.445-6.099 5.87-4.655 9.886s5.871 6.101 9.886 4.655c6.616-2.38 12.622-6.245 17.551-11.217 5.093 5.14 11.329 9.087 18.217 11.449.831.285 1.676.42 2.507.42 3.21 0 6.209-2.016 7.308-5.222 1.386-4.037-.764-8.432-4.8-9.815z" fill="#564f57"/><path d="m399.339 256.852c0 10.953-8.879 8.352-19.831 8.352-10.953 0-19.831 2.601-19.831-8.352s8.879-19.831 19.831-19.831 19.831 8.879 19.831 19.831z" fill="#685e68"/><path d="m381.623 237.134c3.389 3.558 5.473 8.37 5.473 13.671 0 10.953-8.879 8.352-19.832 8.352-2.614 0-5.107.147-7.392.224 1.35 7.989 9.624 5.823 19.634 5.823 10.953 0 19.832 2.601 19.832-8.352.001-10.237-7.757-18.661-17.715-19.718z" fill="#554e56"/><path d="m155.962 282.351c-6.232-2.137-11.657-6.224-15.501-11.586v-11.533c0-4.267-3.459-7.727-7.727-7.727s-7.727 3.459-7.727 7.727v11.536c-3.749 5.226-9.019 9.254-15.058 11.427-4.016 1.444-6.1 5.87-4.655 9.886s5.873 6.102 9.886 4.655c6.616-2.38 12.622-6.245 17.552-11.217 5.092 5.139 11.329 9.087 18.217 11.449.831.285 1.676.42 2.507.42 3.21 0 6.209-2.016 7.308-5.222 1.384-4.037-.766-8.431-4.802-9.815z" fill="#865151"/><path d="m152.565 256.852c0 10.953-8.879 8.352-19.831 8.352s-19.831 2.601-19.831-8.352 8.879-19.831 19.831-19.831 19.831 8.879 19.831 19.831z" fill="#9c5e5e"/><g fill="#855151"><path d="m134.85 237.134c3.389 3.558 5.473 8.37 5.473 13.671 0 10.953-8.879 8.352-19.832 8.352-2.614 0-5.107.147-7.392.224 1.35 7.989 9.624 5.823 19.634 5.823 10.953 0 19.831 2.601 19.831-8.352.001-10.237-7.757-18.661-17.714-19.718z"/><circle cx="71.631" cy="222.668" r="13.6"/><circle cx="194.114" cy="222.668" r="13.6"/></g><circle cx="317.886" cy="222.668" fill="#554e56" r="13.6"/><circle cx="440.369" cy="222.668" fill="#554e56" r="13.6"/></svg>